<svg xmlns="http://www.w3.org/2000/svg" viewBox="0 0 32 32"><path d="M16 10.25a5.746 5.746 0 0 0-5.312 3.55 5.75 5.75 0 1 0 5.313-3.549zm0 10a4.248 4.248 0 0 1-3.005-7.255 4.253 4.253 0 0 1 6.539.644A4.25 4.25 0 0 1 20.25 16 4.265 4.265 0 0 1 16 20.25zm5.5-16.5h-11a6.75 6.75 0 0 0-6.75 6.75v11a6.75 6.75 0 0 0 6.75 6.75h11a6.75 6.75 0 0 0 6.75-6.75v-11a6.75 6.75 0 0 0-6.75-6.75zm5.25 17.75a5.247 5.247 0 0 1-5.25 5.25h-11a5.247 5.247 0 0 1-5.25-5.25v-11a5.247 5.247 0 0 1 5.25-5.25h11a5.247 5.247 0 0 1 5.25 5.25v11zm-3-12a1.243 1.243 0 0 1-.772 1.154 1.249 1.249 0 0 1-1.173-2.194 1.254 1.254 0 0 1 1.579.155c.235.234.366.552.366.884z"/></svg>